<?xml version="1.0" encoding="UTF-8"?>
<svg id="_レイヤー_1" data-name="レイヤー_1" xmlns="http://www.w3.org/2000/svg" version="1.1" viewBox="0 0 300 108.3">
  <!-- Generator: Adobe Illustrator 29.3.1, SVG Export Plug-In . SVG Version: 2.1.0 Build 151)  -->
  <defs>
    <style>
      .st0 {
        fill: #323333;
      }
    </style>
  </defs>
  <g id="_x34_">
    <g>
      <path class="st0" d="M9.4,0h4.5l9.4,26h-4.1l-1.8-4.9H5.9l-1.8,4.9H0L9.4,0ZM7.3,17.2h8.8l-4.4-12.1-4.4,12.1Z"/>
      <path class="st0" d="M30,26L23.4,0h4l4.9,19.1L37.1,0h3.5l4.9,19.1L50.3,0h4l-6.6,26h-4.4l-4.4-17.2-4.4,17.2h-4.4Z"/>
      <path class="st0" d="M63.7,0h4.5l9.4,26h-4.1l-1.8-4.9h-11.6l-1.8,4.9h-4.1L63.7,0ZM61.6,17.2h8.8l-4.4-12.1-4.4,12.1Z"/>
      <path class="st0" d="M84.4,26.5c-.9,0-1.8-.2-2.7-.5s-1.7-.8-2.4-1.4l2.5-3c.3.3.7.5,1.1.7.4.2.9.3,1.5.3s1.4-.2,2-.6,1.1-.9,1.5-1.5c.4-.6.6-1.3.6-2.1V0h3.9v18.4c0,1.4-.4,2.8-1.1,4-.7,1.2-1.7,2.2-2.9,2.9-1.2.7-2.5,1.1-4,1.1Z"/>
      <path class="st0" d="M99.7,26V0h3.9v26h-3.9Z"/>
      <path class="st0" d="M.7,66.9v-26h15.3v3.9H4.6v6.3h9.7v3.9H4.6v12H.7Z"/>
      <path class="st0" d="M31.6,67.4c-1.8,0-3.4-.3-5-1s-2.9-1.7-4.1-2.9c-1.2-1.2-2.1-2.7-2.8-4.3-.7-1.6-1-3.4-1-5.2s.3-3.6,1-5.2c.7-1.6,1.6-3.1,2.8-4.3s2.5-2.2,4.1-2.9c1.5-.7,3.2-1,5-1s3.4.3,5,1c1.5.7,2.9,1.7,4.1,2.9,1.2,1.2,2.1,2.7,2.8,4.3s1,3.4,1,5.2-.3,3.6-1,5.2c-.7,1.6-1.6,3.1-2.8,4.3-1.2,1.2-2.5,2.2-4.1,2.9s-3.2,1-5,1ZM31.6,63.5c1.2,0,2.4-.3,3.5-.8,1.1-.5,2-1.2,2.8-2.1.8-.9,1.5-1.9,1.9-3.1.5-1.2.7-2.4.7-3.7s-.2-2.5-.7-3.7c-.5-1.2-1.1-2.2-1.9-3.1-.8-.9-1.8-1.6-2.8-2.1-1.1-.5-2.2-.8-3.5-.8s-2.4.3-3.5.8c-1.1.5-2,1.2-2.8,2.1-.8.9-1.5,1.9-1.9,3.1-.5,1.2-.7,2.4-.7,3.7s.2,2.6.7,3.7c.5,1.2,1.1,2.2,1.9,3.1.8.9,1.8,1.6,2.8,2.1,1.1.5,2.2.8,3.5.8Z"/>
      <path class="st0" d="M61.1,67.4c-1.8,0-3.4-.3-5-1s-2.9-1.7-4.1-2.9c-1.2-1.2-2.1-2.7-2.8-4.3-.7-1.6-1-3.4-1-5.2s.3-3.6,1-5.2c.7-1.6,1.6-3.1,2.8-4.3s2.5-2.2,4.1-2.9c1.5-.7,3.2-1,5-1s3.4.3,5,1c1.5.7,2.9,1.7,4.1,2.9,1.2,1.2,2.1,2.7,2.8,4.3s1,3.4,1,5.2-.3,3.6-1,5.2c-.7,1.6-1.6,3.1-2.8,4.3-1.2,1.2-2.5,2.2-4.1,2.9s-3.2,1-5,1ZM61.1,63.5c1.2,0,2.4-.3,3.5-.8,1.1-.5,2-1.2,2.8-2.1.8-.9,1.5-1.9,1.9-3.1.5-1.2.7-2.4.7-3.7s-.2-2.5-.7-3.7c-.5-1.2-1.1-2.2-1.9-3.1-.8-.9-1.8-1.6-2.8-2.1-1.1-.5-2.2-.8-3.5-.8s-2.4.3-3.5.8c-1.1.5-2,1.2-2.8,2.1-.8.9-1.5,1.9-1.9,3.1-.5,1.2-.7,2.4-.7,3.7s.2,2.6.7,3.7c.5,1.2,1.1,2.2,1.9,3.1.8.9,1.8,1.6,2.8,2.1,1.1.5,2.2.8,3.5.8Z"/>
      <path class="st0" d="M78.6,66.9v-26h8.6c1.8,0,3.5.3,5,1s2.9,1.6,4.1,2.8,2.1,2.6,2.8,4.1c.7,1.6,1,3.2,1,5s-.3,3.5-1,5c-.7,1.6-1.6,2.9-2.8,4.1-1.2,1.2-2.6,2.1-4.1,2.8-1.6.7-3.3,1-5,1h-8.6ZM82.4,63h4.7c1.3,0,2.4-.2,3.5-.7s2.1-1.1,2.9-2,1.5-1.8,2-2.9c.5-1.1.7-2.3.7-3.5s-.2-2.4-.7-3.5c-.5-1.1-1.1-2.1-2-2.9-.8-.8-1.8-1.5-2.9-2-1.1-.5-2.3-.7-3.5-.7h-4.7v18.3Z"/>
      <path class="st0" d="M114.2,66.9v-26h9.6c1.4,0,2.7.3,3.8,1,1.1.7,2,1.6,2.7,2.8.7,1.2,1,2.5,1,3.9s-.2,2.3-.7,3.3c-.5,1-1.1,1.9-1.9,2.6-.8.7-1.7,1.2-2.8,1.5l6.3,10.8h-4.5l-6.1-10.5h-3.5v10.5h-3.9ZM118.1,52.6h5.3c.7,0,1.4-.2,2-.6s1.1-.9,1.5-1.5c.4-.6.5-1.3.5-2.1s-.2-1.5-.5-2.1c-.4-.6-.8-1.1-1.5-1.5-.6-.4-1.3-.5-2-.5h-5.3v8.3Z"/>
      <path class="st0" d="M137,66.9v-26h16.1v3.9h-12.3v6.3h9.9v3.9h-9.9v8.1h12.3v3.9h-16.1Z"/>
      <path class="st0" d="M167.4,67.4c-1.4,0-2.8-.2-4.1-.7-1.3-.4-2.5-1.1-3.4-1.9-1-.8-1.7-1.8-2.1-3l3.6-1.4c.2.6.6,1.1,1.2,1.6s1.3.8,2.2,1.1c.8.3,1.7.4,2.6.4s1.9-.2,2.8-.5c.9-.3,1.6-.8,2.1-1.3.5-.6.8-1.2.8-2s-.3-1.4-.8-1.9c-.6-.5-1.3-.9-2.2-1.2s-1.8-.5-2.7-.7c-1.8-.3-3.4-.7-4.9-1.3-1.4-.6-2.6-1.4-3.4-2.4-.8-1-1.3-2.4-1.3-4s.4-2.9,1.3-4c.9-1.2,2.1-2,3.5-2.7s3-1,4.7-1,2.7.2,4.1.7c1.3.4,2.5,1.1,3.5,1.9,1,.8,1.7,1.8,2.1,3l-3.7,1.3c-.2-.6-.6-1.1-1.2-1.6-.6-.5-1.3-.8-2.1-1.1-.8-.3-1.7-.4-2.6-.4-1,0-1.9.1-2.8.5-.9.3-1.6.8-2.1,1.3s-.8,1.2-.8,2,.3,1.6.8,2.1c.5.5,1.2.8,2.1,1.1.9.2,1.8.4,2.9.6,1.7.3,3.3.7,4.7,1.4,1.5.6,2.6,1.5,3.5,2.5.9,1,1.3,2.3,1.3,3.8s-.4,2.9-1.3,4c-.9,1.2-2.1,2.1-3.5,2.7s-3,1-4.7,1Z"/>
      <path class="st0" d="M182.1,66.9v-26h16.1v3.9h-12.3v6.3h9.9v3.9h-9.9v8.1h12.3v3.9h-16.1Z"/>
      <path class="st0" d="M211.9,40.9h4.5l9.4,26h-4.1l-1.8-4.9h-11.6l-1.8,4.9h-4.1l9.4-26ZM209.8,58.1h8.8l-4.4-12.1-4.4,12.1Z"/>
      <path class="st0" d="M230.5,66.9v-26h9.6c1.4,0,2.7.3,3.8,1,1.1.7,2,1.6,2.7,2.8.7,1.2,1,2.5,1,3.9s-.2,2.3-.7,3.3c-.5,1-1.1,1.9-1.9,2.6-.8.7-1.7,1.2-2.8,1.5l6.3,10.8h-4.5l-6.1-10.5h-3.5v10.5h-3.9ZM234.4,52.6h5.3c.7,0,1.4-.2,2-.6s1.1-.9,1.5-1.5c.4-.6.5-1.3.5-2.1s-.2-1.5-.5-2.1c-.4-.6-.8-1.1-1.5-1.5-.6-.4-1.3-.5-2-.5h-5.3v8.3Z"/>
      <path class="st0" d="M265.3,67.4c-1.8,0-3.4-.3-5-1s-2.9-1.7-4.1-2.9c-1.2-1.2-2.1-2.7-2.7-4.3s-1-3.4-1-5.2.3-3.6,1-5.2,1.6-3.1,2.7-4.3,2.5-2.2,4.1-2.9c1.5-.7,3.2-1,5-1s4,.5,5.8,1.5c1.8,1,3.2,2.3,4.4,3.9l-3.4,1.8c-.8-1-1.8-1.8-3-2.4s-2.4-.9-3.8-.9-2.4.3-3.5.8c-1.1.5-2,1.2-2.8,2.1-.8.9-1.5,1.9-1.9,3.1s-.7,2.4-.7,3.7.2,2.6.7,3.7,1.1,2.2,1.9,3.1c.8.9,1.8,1.6,2.8,2.1,1.1.5,2.2.8,3.5.8s2.6-.3,3.8-.9c1.2-.6,2.2-1.4,3-2.4l3.4,1.9c-1.2,1.6-2.6,2.9-4.4,3.9-1.8,1-3.7,1.5-5.8,1.5Z"/>
      <path class="st0" d="M296.1,40.9h3.9v26h-3.9v-12h-11.7v12h-3.9v-26h3.9v10.1h11.7v-10.1Z"/>
      <path class="st0" d="M1.3,107.8v-26h3.9v26H1.3Z"/>
      <path class="st0" d="M12.6,107.8v-26h4.2l11.9,19v-19h3.9v26h-4.2l-11.9-19v19h-3.9Z"/>
      <path class="st0" d="M47.2,108.3c-1.4,0-2.8-.2-4.1-.7-1.3-.4-2.5-1.1-3.4-1.9-1-.8-1.7-1.8-2.1-3l3.6-1.4c.2.6.6,1.1,1.2,1.6s1.3.8,2.2,1.1,1.7.4,2.6.4,1.9-.2,2.8-.5c.9-.3,1.6-.8,2.1-1.3s.8-1.2.8-2-.3-1.4-.8-1.9c-.6-.5-1.3-.9-2.2-1.2-.9-.3-1.8-.5-2.7-.7-1.8-.3-3.4-.7-4.9-1.3s-2.6-1.4-3.4-2.4c-.8-1-1.3-2.4-1.3-4s.4-2.9,1.3-4,2.1-2,3.5-2.7,3-1,4.7-1,2.7.2,4.1.7,2.5,1.1,3.5,1.9c1,.8,1.7,1.8,2.1,3l-3.7,1.3c-.2-.6-.6-1.1-1.2-1.6-.6-.5-1.3-.8-2.1-1.1-.8-.3-1.7-.4-2.6-.4-1,0-1.9.1-2.8.5-.9.3-1.6.8-2.1,1.3-.5.6-.8,1.2-.8,2s.3,1.6.8,2.1c.5.5,1.2.8,2,1.1.9.2,1.8.4,2.9.6,1.7.3,3.3.7,4.7,1.4,1.5.6,2.6,1.5,3.5,2.5s1.3,2.3,1.3,3.8-.4,2.9-1.3,4c-.9,1.2-2.1,2.1-3.5,2.7s-3,1-4.7,1Z"/>
      <path class="st0" d="M80.7,81.8v3.9h-8.3v22.1h-3.9v-22.1h-8.3v-3.9h20.4Z"/>
      <path class="st0" d="M85.9,107.8v-26h3.9v26h-3.9Z"/>
      <path class="st0" d="M115.4,81.8v3.9h-8.3v22.1h-3.9v-22.1h-8.3v-3.9h20.4Z"/>
      <path class="st0" d="M130.3,108.3c-2.1,0-3.9-.5-5.4-1.5s-2.7-2.4-3.6-4.1c-.8-1.7-1.3-3.6-1.3-5.7v-15.1h3.9v15.1c0,1.4.3,2.6.8,3.7.5,1.1,1.2,2,2.2,2.7s2.1,1,3.5,1,2.6-.3,3.5-1,1.7-1.6,2.2-2.7c.5-1.1.7-2.4.7-3.7v-15.1h3.9v15.1c0,1.6-.2,3-.7,4.4-.5,1.4-1.2,2.6-2.1,3.6-.9,1-2,1.8-3.2,2.4-1.3.6-2.7.9-4.2.9Z"/>
      <path class="st0" d="M165.6,81.8v3.9h-8.3v22.1h-3.9v-22.1h-8.3v-3.9h20.4Z"/>
      <path class="st0" d="M170.2,107.8v-26h16.1v3.9h-12.3v6.3h9.9v3.9h-9.9v8.1h12.3v3.9h-16.1Z"/>
    </g>
  </g>
</svg>