<svg width="46" height="11" viewBox="0 0 46 11" fill="none" xmlns="http://www.w3.org/2000/svg">
<g clip-path="url(#clip0_174_937)">
<path d="M5.97701 1.22852C4.25287 1.22852 1.83908 1.22852 0 1.22852V10.194H2.52874V3.41242C2.52874 3.41242 4.82759 3.29748 5.63218 3.41242C6.43678 3.52737 6.66667 3.98714 6.66667 4.90668C6.66667 6.0561 6.66667 6.63081 6.66667 10.194H9.1954C9.1954 10.194 9.1954 6.17104 9.1954 4.67679C9.08046 2.263 8.27586 1.22852 5.97701 1.22852Z" fill="#333333"/>
<path d="M17.5862 1.11328C15.0574 1.11328 13.1034 3.18225 13.1034 5.71098C13.1034 8.23972 15.1724 10.3087 17.5862 10.3087C19.9999 10.3087 22.0689 8.23972 22.0689 5.71098C22.0689 3.18225 20.1149 1.11328 17.5862 1.11328ZM17.5862 8.12478C16.3218 8.12478 15.1724 7.09029 15.1724 5.71098C15.1724 4.33167 16.2068 3.29719 17.5862 3.29719C18.9655 3.29719 19.9999 4.33167 19.9999 5.71098C19.9999 6.97535 18.9655 8.12478 17.5862 8.12478Z" fill="#333333"/>
<path d="M45.977 5.71098C45.977 3.18225 43.908 1.11328 41.4942 1.11328C38.9655 1.11328 37.0115 3.18225 37.0115 5.71098C37.0115 7.20524 37.7011 8.4696 38.7356 9.2742C39.4253 9.84892 40.4598 10.3087 41.8391 10.3087C42.5287 10.3087 44.2529 10.0788 45.5172 8.69949L44.4827 7.32018C44.023 7.66501 42.9885 8.23972 42.0689 8.23972C40.9195 8.23972 40.3448 8.00983 39.7701 7.55006C39.4253 7.32018 39.3103 6.86041 39.1954 6.40064H45.977C45.977 6.17075 45.977 5.94087 45.977 5.71098ZM39.1954 4.90638C39.4253 3.8719 40.2299 3.0673 41.4942 3.0673C42.8735 3.0673 43.5632 3.8719 43.7931 4.90638H39.1954Z" fill="#333333"/>
<path d="M30.6896 0.308594H28.2759V2.83733H25.8621V5.02124H28.2759V7.66492H30.6896V5.02124H33.1034V2.83733H30.6896V0.308594Z" fill="#333333"/>
</g>
<defs>
<clipPath id="clip0_174_937">
<rect width="45.977" height="10" fill="white" transform="translate(0 0.308594)"/>
</clipPath>
</defs>
</svg>
