<?xml version="1.0" encoding="UTF-8"?>
<svg id="_レイヤー_1" data-name="レイヤー_1" xmlns="http://www.w3.org/2000/svg" xmlns:xlink="http://www.w3.org/1999/xlink" version="1.1" viewBox="0 0 46 11">
  <!-- Generator: Adobe Illustrator 29.7.1, SVG Export Plug-In . SVG Version: 2.1.1 Build 8)  -->
  <defs>
    <style>
      .st0 {
        fill: none;
      }

      .st1 {
        fill: #fff;
      }

      .st2 {
        clip-path: url(#clippath);
      }
    </style>
    <clipPath id="clippath">
      <rect class="st0" y=".3" width="46" height="10"/>
    </clipPath>
  </defs>
  <g class="st2">
    <g>
      <path class="st1" d="M6,1.2H0v9h2.5V3.4s2.3-.1,3.1,0c.8.1,1,.6,1,1.5v5.3h2.5v-5.5c-.1-2.4-.9-3.4-3.2-3.4Z"/>
      <path class="st1" d="M17.6,1.1c-2.5,0-4.5,2.1-4.5,4.6s2.1,4.6,4.5,4.6,4.5-2.1,4.5-4.6-2-4.6-4.5-4.6ZM17.6,8.1c-1.3,0-2.4-1-2.4-2.4s1-2.4,2.4-2.4,2.4,1,2.4,2.4-1,2.4-2.4,2.4Z"/>
      <path class="st1" d="M46,5.7c0-2.5-2.1-4.6-4.5-4.6s-4.5,2.1-4.5,4.6.7,2.8,1.7,3.6c.7.6,1.7,1,3.1,1s2.4-.2,3.7-1.6l-1-1.4c-.5.3-1.5.9-2.4.9s-1.7-.2-2.3-.7c-.3-.2-.5-.7-.6-1.1h6.8v-.7ZM39.2,4.9c.2-1,1-1.8,2.3-1.8s2.1.8,2.3,1.8h-4.6Z"/>
      <path class="st1" d="M30.7.3h-2.4v2.5h-2.4v2.2h2.4v2.6h2.4v-2.6h2.4v-2.2h-2.4V.3Z"/>
    </g>
  </g>
</svg>